<mxfile host="65bd71144e">
    <diagram id="dFRBOeBooWIgSXxVolc3" name="Page-1">
        <mxGraphModel dx="1450" dy="1058" grid="0" gridSize="10" guides="1" tooltips="1" connect="1" arrows="1" fold="1" page="0" pageScale="1" pageWidth="850" pageHeight="1100" math="0" shadow="0">
            <root>
                <mxCell id="0"/>
                <mxCell id="1" parent="0"/>
                <mxCell id="3" value="MongoDb" style="rounded=1;whiteSpace=wrap;html=1;fillColor=#f5f5f5;fontColor=#333333;strokeColor=#666666;" parent="1" vertex="1">
                    <mxGeometry x="980" y="-259" width="123" height="66" as="geometry"/>
                </mxCell>
                <mxCell id="4" value="Validator" style="rounded=1;whiteSpace=wrap;html=1;sketch=1;curveFitting=1;jiggle=2;" parent="1" vertex="1">
                    <mxGeometry x="181" y="275" width="160" height="80" as="geometry"/>
                </mxCell>
                <mxCell id="17" value="" style="rounded=0;whiteSpace=wrap;html=1;fillColor=#d5e8d4;strokeColor=#82b366;shadow=0;sketch=1;curveFitting=1;jiggle=2;" parent="1" vertex="1">
                    <mxGeometry x="357" y="122" width="588" height="249" as="geometry"/>
                </mxCell>
                <mxCell id="43" value="" style="edgeStyle=none;html=1;rounded=0;" parent="1" source="18" target="32" edge="1">
                    <mxGeometry relative="1" as="geometry"/>
                </mxCell>
                <mxCell id="96" style="edgeStyle=none;html=1;" parent="1" source="18" target="60" edge="1">
                    <mxGeometry relative="1" as="geometry"/>
                </mxCell>
                <mxCell id="99" style="edgeStyle=none;html=1;exitX=0.5;exitY=1;exitDx=0;exitDy=0;entryX=0.5;entryY=0;entryDx=0;entryDy=0;" parent="1" source="18" target="98" edge="1">
                    <mxGeometry relative="1" as="geometry">
                        <Array as="points">
                            <mxPoint x="742" y="229"/>
                            <mxPoint x="617" y="234"/>
                        </Array>
                    </mxGeometry>
                </mxCell>
                <mxCell id="102" style="edgeStyle=none;html=1;exitX=0.25;exitY=1;exitDx=0;exitDy=0;entryX=0.5;entryY=0;entryDx=0;entryDy=0;" parent="1" source="18" target="101" edge="1">
                    <mxGeometry relative="1" as="geometry">
                        <Array as="points">
                            <mxPoint x="710" y="223"/>
                            <mxPoint x="446" y="230"/>
                        </Array>
                    </mxGeometry>
                </mxCell>
                <mxCell id="103" style="edgeStyle=none;html=1;exitX=0.75;exitY=1;exitDx=0;exitDy=0;entryX=0.439;entryY=0.021;entryDx=0;entryDy=0;entryPerimeter=0;" parent="1" source="18" target="19" edge="1">
                    <mxGeometry relative="1" as="geometry"/>
                </mxCell>
                <mxCell id="18" value="SignUpController" style="rounded=1;whiteSpace=wrap;html=1;" parent="1" vertex="1">
                    <mxGeometry x="678" y="151" width="127" height="61" as="geometry"/>
                </mxCell>
                <mxCell id="19" value="&amp;lt;I&amp;gt; Controller" style="rounded=1;whiteSpace=wrap;html=1;dashed=1;sketch=1;curveFitting=1;jiggle=2;" parent="1" vertex="1">
                    <mxGeometry x="722" y="249" width="116" height="48" as="geometry"/>
                </mxCell>
                <mxCell id="32" value="&amp;lt;I&amp;gt; EmailValidator" style="rounded=1;whiteSpace=wrap;html=1;dashed=1;sketch=1;curveFitting=1;jiggle=2;" parent="1" vertex="1">
                    <mxGeometry x="490" y="151" width="124" height="66" as="geometry"/>
                </mxCell>
                <mxCell id="38" value="" style="edgeStyle=none;html=1;rounded=0;" parent="1" source="35" target="37" edge="1">
                    <mxGeometry relative="1" as="geometry"/>
                </mxCell>
                <mxCell id="35" value="ExpressRouteAdapter" style="rounded=0;whiteSpace=wrap;html=1;" parent="1" vertex="1">
                    <mxGeometry x="612" y="418" width="160" height="80" as="geometry"/>
                </mxCell>
                <mxCell id="37" value="Express" style="whiteSpace=wrap;html=1;rounded=0;" parent="1" vertex="1">
                    <mxGeometry x="629" y="554" width="120" height="60" as="geometry"/>
                </mxCell>
                <mxCell id="39" value="" style="rounded=0;whiteSpace=wrap;html=1;fillColor=#dae8fc;strokeColor=#6c8ebf;sketch=1;curveFitting=1;jiggle=2;" parent="1" vertex="1">
                    <mxGeometry x="169" y="130" width="172" height="126" as="geometry"/>
                </mxCell>
                <mxCell id="107" style="edgeStyle=none;html=1;entryX=0.001;entryY=0.596;entryDx=0;entryDy=0;entryPerimeter=0;" parent="1" source="44" target="32" edge="1">
                    <mxGeometry relative="1" as="geometry">
                        <Array as="points">
                            <mxPoint x="490" y="190"/>
                        </Array>
                    </mxGeometry>
                </mxCell>
                <mxCell id="108" style="edgeStyle=none;html=1;exitX=0.5;exitY=1;exitDx=0;exitDy=0;" parent="1" source="44" target="4" edge="1">
                    <mxGeometry relative="1" as="geometry"/>
                </mxCell>
                <mxCell id="44" value="EmailValidatorAdapter" style="rounded=0;whiteSpace=wrap;html=1;sketch=1;curveFitting=1;jiggle=2;" parent="1" vertex="1">
                    <mxGeometry x="194" y="159" width="135" height="60" as="geometry"/>
                </mxCell>
                <mxCell id="55" value="Presentation&lt;br&gt;" style="text;html=1;align=center;verticalAlign=middle;resizable=0;points=[];autosize=1;strokeColor=none;fillColor=none;rounded=0;" parent="1" vertex="1">
                    <mxGeometry x="862" y="100" width="85" height="26" as="geometry"/>
                </mxCell>
                <mxCell id="47" value="" style="rounded=0;whiteSpace=wrap;html=1;fillColor=#FFFF99;strokeColor=none;fontColor=#ffffff;sketch=1;curveFitting=1;jiggle=2;" parent="1" vertex="1">
                    <mxGeometry x="967" y="94" width="290" height="266" as="geometry"/>
                </mxCell>
                <mxCell id="60" value="&amp;lt;I&amp;gt; AddAccount" style="rounded=1;whiteSpace=wrap;html=1;dashed=1;fillColor=#f5f5f5;fontColor=#333333;strokeColor=#666666;" parent="1" vertex="1">
                    <mxGeometry x="1040" y="163" width="120" height="60" as="geometry"/>
                </mxCell>
                <mxCell id="61" value="Domain" style="text;html=1;align=center;verticalAlign=middle;resizable=0;points=[];autosize=1;strokeColor=none;fillColor=none;rounded=0;" parent="1" vertex="1">
                    <mxGeometry x="1196" y="66" width="59" height="26" as="geometry"/>
                </mxCell>
                <mxCell id="65" value="Utils" style="text;html=1;align=center;verticalAlign=middle;resizable=0;points=[];autosize=1;strokeColor=none;fillColor=none;rounded=0;" parent="1" vertex="1">
                    <mxGeometry x="307" y="104" width="41" height="26" as="geometry"/>
                </mxCell>
                <mxCell id="67" value="" style="rounded=0;whiteSpace=wrap;html=1;fillColor=#FF99FF;fontColor=#ffffff;strokeColor=#A50040;sketch=1;curveFitting=1;jiggle=2;" parent="1" vertex="1">
                    <mxGeometry x="285" y="-101" width="662" height="183" as="geometry"/>
                </mxCell>
                <mxCell id="68" value="&amp;lt;I&amp;gt; Encripter" style="rounded=1;whiteSpace=wrap;html=1;dashed=1;fillColor=#f5f5f5;fontColor=#333333;strokeColor=#666666;" parent="1" vertex="1">
                    <mxGeometry x="370" y="-75" width="120" height="60" as="geometry"/>
                </mxCell>
                <mxCell id="69" value="&amp;lt;I&amp;gt; AddUserRepo" style="rounded=1;whiteSpace=wrap;html=1;dashed=1;" parent="1" vertex="1">
                    <mxGeometry x="718" y="-75" width="120" height="60" as="geometry"/>
                </mxCell>
                <mxCell id="74" style="edgeStyle=none;html=1;entryX=0.5;entryY=1;entryDx=0;entryDy=0;" parent="1" source="70" target="68" edge="1">
                    <mxGeometry relative="1" as="geometry">
                        <Array as="points">
                            <mxPoint x="430" y="37"/>
                        </Array>
                    </mxGeometry>
                </mxCell>
                <mxCell id="79" style="edgeStyle=none;html=1;entryX=0.634;entryY=1.008;entryDx=0;entryDy=0;entryPerimeter=0;exitX=1;exitY=0.514;exitDx=0;exitDy=0;exitPerimeter=0;" parent="1" source="70" target="69" edge="1">
                    <mxGeometry relative="1" as="geometry">
                        <Array as="points">
                            <mxPoint x="727" y="35"/>
                            <mxPoint x="791" y="35"/>
                        </Array>
                    </mxGeometry>
                </mxCell>
                <mxCell id="95" value="" style="edgeStyle=none;html=1;entryX=0.5;entryY=0;entryDx=0;entryDy=0;exitX=0.447;exitY=0.923;exitDx=0;exitDy=0;exitPerimeter=0;" parent="1" source="67" target="60" edge="1">
                    <mxGeometry relative="1" as="geometry">
                        <Array as="points">
                            <mxPoint x="580" y="98"/>
                            <mxPoint x="1101" y="99"/>
                        </Array>
                    </mxGeometry>
                </mxCell>
                <mxCell id="111" style="edgeStyle=none;html=1;exitX=0.5;exitY=0;exitDx=0;exitDy=0;entryX=0.568;entryY=1.022;entryDx=0;entryDy=0;entryPerimeter=0;" parent="1" source="70" target="93" edge="1">
                    <mxGeometry relative="1" as="geometry"/>
                </mxCell>
                <mxCell id="70" value="DbAddAccount" style="rounded=1;whiteSpace=wrap;html=1;" parent="1" vertex="1">
                    <mxGeometry x="538" y="5" width="120" height="61" as="geometry"/>
                </mxCell>
                <mxCell id="71" value="Data" style="text;html=1;align=center;verticalAlign=middle;resizable=0;points=[];autosize=1;strokeColor=none;fillColor=none;" parent="1" vertex="1">
                    <mxGeometry x="902.5" y="-133" width="43" height="26" as="geometry"/>
                </mxCell>
                <mxCell id="81" value="" style="rounded=0;whiteSpace=wrap;html=1;fillColor=#9999FF;strokeColor=#6c8ebf;sketch=1;curveFitting=1;jiggle=2;" parent="1" vertex="1">
                    <mxGeometry x="289" y="-281" width="658" height="125" as="geometry"/>
                </mxCell>
                <mxCell id="84" value="Infra" style="text;html=1;align=center;verticalAlign=middle;resizable=0;points=[];autosize=1;strokeColor=none;fillColor=none;rounded=1;" parent="1" vertex="1">
                    <mxGeometry x="903" y="-319" width="42" height="26" as="geometry"/>
                </mxCell>
                <mxCell id="88" style="edgeStyle=none;html=1;entryX=0.409;entryY=0.014;entryDx=0;entryDy=0;entryPerimeter=0;" parent="1" source="85" target="68" edge="1">
                    <mxGeometry relative="1" as="geometry"/>
                </mxCell>
                <mxCell id="110" value="" style="edgeStyle=none;html=1;" parent="1" source="85" target="109" edge="1">
                    <mxGeometry relative="1" as="geometry"/>
                </mxCell>
                <mxCell id="85" value="BCriptAdapter" style="rounded=1;whiteSpace=wrap;html=1;fillColor=#f5f5f5;fontColor=#333333;strokeColor=#666666;" parent="1" vertex="1">
                    <mxGeometry x="364" y="-253" width="120" height="60" as="geometry"/>
                </mxCell>
                <mxCell id="89" style="edgeStyle=none;html=1;entryX=0.462;entryY=0.005;entryDx=0;entryDy=0;entryPerimeter=0;" parent="1" source="86" target="69" edge="1">
                    <mxGeometry relative="1" as="geometry"/>
                </mxCell>
                <mxCell id="91" style="edgeStyle=none;html=1;" parent="1" source="86" target="3" edge="1">
                    <mxGeometry relative="1" as="geometry"/>
                </mxCell>
                <mxCell id="86" value="AddMongoRepo" style="rounded=1;whiteSpace=wrap;html=1;fillColor=#f5f5f5;fontColor=#333333;strokeColor=#666666;" parent="1" vertex="1">
                    <mxGeometry x="715" y="-258" width="120" height="60" as="geometry"/>
                </mxCell>
                <mxCell id="93" value="LoadUderByEmailRepo" style="rounded=1;whiteSpace=wrap;html=1;sketch=1;curveFitting=1;jiggle=2;" parent="1" vertex="1">
                    <mxGeometry x="524" y="-73" width="131" height="58" as="geometry"/>
                </mxCell>
                <mxCell id="98" value="HttpResponse" style="rounded=1;whiteSpace=wrap;html=1;shadow=0;sketch=1;dashed=1;" parent="1" vertex="1">
                    <mxGeometry x="556.5" y="251" width="119" height="46" as="geometry"/>
                </mxCell>
                <mxCell id="101" value="HttpRequest" style="rounded=1;whiteSpace=wrap;html=1;shadow=0;dashed=1;sketch=1;" parent="1" vertex="1">
                    <mxGeometry x="391" y="246" width="110" height="48" as="geometry"/>
                </mxCell>
                <mxCell id="109" value="BCript" style="rounded=1;whiteSpace=wrap;html=1;shadow=0;dashed=1;sketch=1;fillColor=#f5f5f5;fontColor=#333333;strokeColor=#666666;" parent="1" vertex="1">
                    <mxGeometry x="364" y="-356" width="120" height="60" as="geometry"/>
                </mxCell>
            </root>
        </mxGraphModel>
    </diagram>
</mxfile>